<?xml version="1.0" encoding="UTF-8"?>
<svg width="43px" height="44px" viewBox="0 0 43 44" version="1.1" xmlns="https://www.w3.org/2000/svg" xmlns:xlink="https://www.w3.org/1999/xlink">
    <!-- Generator: Sketch 52.4 (67378) - https://www.bohemiancoding.com/sketch -->
    <title>insta_red</title>
    <desc>Created with Sketch.</desc>
    <g id="Page-1" stroke="none" stroke-width="1" fill="none" fill-rule="evenodd">
        <g id="insta_red" transform="translate(0.000000, 0.741270)" fill="#962333">
            <path d="M30.1372355,0 L12.7875145,0 C5.73644928,0 0,5.73644928 0,12.7875145 L0,30.1372355 C0,37.1883007 5.73644928,42.92475 12.7875145,42.92475 L30.1372355,42.92475 C37.1883007,42.92475 42.92475,37.1883007 42.92475,30.1372355 L42.92475,12.7875145 C42.9246721,5.73644928 37.1882228,0 30.1372355,0 Z M38.6065217,30.1372355 C38.6065217,34.814654 34.814654,38.6065217 30.1372355,38.6065217 L12.7875145,38.6065217 C8.11009601,38.6065217 4.31822826,34.814654 4.31822826,30.1372355 L4.31822826,12.7875145 C4.31822826,8.11001812 8.11009601,4.31822826 12.7875145,4.31822826 L30.1372355,4.31822826 C34.814654,4.31822826 38.6065217,8.11001812 38.6065217,12.7875145 L38.6065217,30.1372355 Z" id="Shape" fill-rule="nonzero"></path>
            <path d="M21.462375,10.3605072 C15.3407953,10.3605072 10.3605072,15.3407953 10.3605072,21.4622971 C10.3605072,27.5837989 15.3407953,32.5641649 21.462375,32.5641649 C27.5839547,32.5641649 32.5642428,27.5838768 32.5642428,21.4622971 C32.5642428,15.3407174 27.5839547,10.3605072 21.462375,10.3605072 Z M21.462375,28.2460145 C17.7158442,28.2460145 14.6787355,25.2089058 14.6787355,21.462375 C14.6787355,17.7158442 17.7159221,14.6787355 21.462375,14.6787355 C25.2089058,14.6787355 28.2460145,17.7158442 28.2460145,21.462375 C28.2460145,25.2088279 25.2088279,28.2460145 21.462375,28.2460145 Z" id="Shape" fill-rule="nonzero"></path>
            <circle id="Oval" cx="32.5857428" cy="10.4438587" r="2.66023551"></circle>
        </g>
    </g>
</svg>