<?xml version="1.0" encoding="UTF-8"?>
<svg width="43px" height="36px" viewBox="0 0 43 36" version="1.1" xmlns="https://www.w3.org/2000/svg" xmlns:xlink="https://www.w3.org/1999/xlink">
    <!-- Generator: Sketch 52.4 (67378) - https://www.bohemiancoding.com/sketch -->
    <title>Path</title>
    <desc>Created with Sketch.</desc>
    <g id="Page-1" stroke="none" stroke-width="1" fill="none" fill-rule="evenodd">
        <path d="M42.3161136,4.16093295 C41.3607209,4.5845851 40.3689492,4.91881005 39.3512824,5.16077718 C40.4726344,4.09519925 41.3157452,2.76238813 41.7913972,1.27473062 C41.927163,0.850030093 41.4658738,0.482781028 41.0823748,0.710175611 C39.6666365,1.54993154 38.1416565,2.17990574 36.5496847,2.58279987 C36.4573221,2.60617885 36.3620239,2.61802559 36.2664113,2.61802559 C35.9764281,2.61802559 35.6945176,2.51035651 35.4727842,2.31493765 C33.7790144,0.822143067 31.6005764,0 29.3388966,0 C28.3602298,0 27.3721275,0.152539934 26.4019525,0.453426264 C23.3960247,1.38575454 21.0766838,3.86528854 20.3490002,6.9244743 C20.0760009,8.07193105 20.0020898,9.22043619 20.129154,10.338014 C20.1437265,10.4664411 20.0830251,10.556078 20.0455977,10.5981182 C19.979864,10.6718196 19.8866627,10.7140695 19.7898968,10.7140695 C19.7790984,10.7140695 19.7679855,10.7135453 19.7569775,10.7124969 C13.1771072,10.101184 7.24367066,6.93118396 3.04960876,1.7865519 C2.83573834,1.52414128 2.42561035,1.55632668 2.25514304,1.8487211 C1.43383868,3.25774977 0.999807529,4.86932631 0.999807529,6.50920923 C0.999807529,9.02239638 2.00950657,11.3908016 3.76334888,13.1173859 C3.02581043,12.9425154 2.31196548,12.6671048 1.64886233,12.2988074 C1.32805669,12.120582 0.933339956,12.349654 0.928831903,12.7165886 C0.882912665,16.4500952 3.06879419,19.7722158 6.34331811,21.2681555 C6.27737473,21.2697281 6.21143135,21.270462 6.14538313,21.270462 C5.626328,21.270462 5.10077289,21.2203492 4.58350001,21.1214865 C4.22222674,21.0525028 3.91871945,21.3952197 4.03089658,21.7454849 C5.09374871,25.0637265 7.95080595,27.5096074 11.3697972,28.0649366 C8.53223996,29.9697462 5.22783708,30.9745179 1.78861197,30.9745179 L0.716429218,30.9738889 C0.386083285,30.9738889 0.106688836,31.189227 0.0225035663,31.5091939 C-0.0604236418,31.8243383 0.0923259691,32.156781 0.374026865,32.3206435 C4.24948474,34.5760329 8.66999767,35.768046 13.1595991,35.768046 C17.0894682,35.768046 20.7655233,34.9881528 24.0857568,33.4501729 C27.1295313,32.0402007 29.8192664,30.0246816 32.0802122,27.4595994 C34.1864166,25.0701216 35.8334285,22.3117174 36.9753288,19.2611284 C38.0638664,16.3532245 38.6392197,13.2504259 38.6392197,10.2881109 L38.6392197,10.1469983 C38.6391149,9.67134634 38.8542434,9.22379102 39.229565,8.91913051 C40.6537952,7.76276249 41.894034,6.40154015 42.9156846,4.87331017 C43.185434,4.469787 42.7599996,3.96404636 42.3161136,4.16093295 Z" id="Path" fill="#F2F2F2"></path>
    </g>
</svg>