<?xml version="1.0" encoding="UTF-8"?>
<svg width="43px" height="43px" viewBox="0 0 43 43" version="1.1" xmlns="http://www.w3.org/2000/svg" xmlns:xlink="http://www.w3.org/1999/xlink">
    <!-- Generator: Sketch 52.4 (67378) - http://www.bohemiancoding.com/sketch -->
    <title>Path</title>
    <desc>Created with Sketch.</desc>
    <g id="Page-1" stroke="none" stroke-width="1" fill="none" fill-rule="evenodd">
        <path d="M37.2055163,0 L5.79437846,0 C2.59429529,0 0,2.5941901 0,5.79437846 L0,37.2057267 C0,40.4059151 2.5941901,43.0001052 5.79437846,43.0001052 L21.2862018,43.0001052 L21.3126044,27.634194 L17.3205475,27.634194 C16.8017515,27.634194 16.3806769,27.2146972 16.3786783,26.6959013 L16.3595337,21.7428306 C16.3575351,21.2211945 16.7798721,20.7972797 17.3015081,20.7972797 L21.286307,20.7972797 L21.286307,16.0113556 C21.286307,10.4573358 24.6783615,7.43312988 29.6329048,7.43312988 L33.6984894,7.43312988 C34.2186528,7.43312988 34.6404638,7.85483567 34.6404638,8.37510427 L34.6404638,12.5515589 C34.6404638,13.0716171 34.2189684,13.4932177 33.6990154,13.4935333 L31.2040192,13.4946904 C28.5095833,13.4946904 27.987842,14.7750602 27.987842,16.6540651 L27.987842,20.7973849 L33.9084482,20.7973849 C34.4725809,20.7973849 34.9102756,21.2899886 34.8437956,21.8502293 L34.2567315,26.8033 C34.2005602,27.2772851 33.7986301,27.6344044 33.3213841,27.6344044 L28.0142447,27.6344044 L27.987842,43.0003156 L37.2057267,43.0003156 C40.4058099,43.0003156 43,40.4061255 43,37.2060423 L43,5.79437846 C42.9998948,2.5941901 40.4057047,0 37.2055163,0 Z" id="Path" fill="#962333"></path>
    </g>
</svg>