<?xml version="1.0" encoding="utf-8"?>
<!-- Generator: Adobe Illustrator 23.0.1, SVG Export Plug-In . SVG Version: 6.00 Build 0)  -->
<svg version="1.1" xmlns="http://www.w3.org/2000/svg" xmlns:xlink="http://www.w3.org/1999/xlink" x="0px" y="0px"
	 viewBox="0 0 629.94 116.64" style="enable-background:new 0 0 629.94 116.64;" xml:space="preserve">
<style type="text/css">
	.st0{fill:#EAE4E4;}
	.st1{fill:#434344;}
	.st2{fill:#1E1E1E;}
	.st3{fill:#962333;}
	.st4{fill:#60262C;}
	.st5{opacity:0.2;}
	.st6{opacity:0.15;}
	.st7{fill:#20252C;}
	.st8{fill:#1C1C1C;}
	.st9{fill:#D6D6D6;}
	.st10{fill:url(#SVGID_1_);}
	.st11{fill:url(#SVGID_2_);}
	.st12{fill:url(#SVGID_3_);}
	.st13{fill:url(#SVGID_4_);}
	.st14{fill:url(#SVGID_5_);}
	.st15{fill:url(#SVGID_6_);}
	.st16{fill:url(#SVGID_7_);}
	.st17{fill:url(#SVGID_8_);}
	.st18{fill:url(#SVGID_9_);}
	.st19{fill:#13171B;}
	.st20{fill:#0C0C0C;}
	.st21{fill-rule:evenodd;clip-rule:evenodd;fill:url(#path7_1_);}
	.st22{fill-rule:evenodd;clip-rule:evenodd;}
	.st23{fill-rule:evenodd;clip-rule:evenodd;fill:#FFFFFF;}
	.st24{fill:#A32633;}
	.st25{fill:url(#SVGID_10_);}
	.st26{fill:url(#SVGID_11_);}
	.st27{fill:url(#SVGID_12_);}
	.st28{fill:url(#SVGID_13_);}
	.st29{fill:url(#SVGID_14_);}
	.st30{fill:url(#SVGID_15_);}
	.st31{fill:url(#SVGID_16_);}
	.st32{fill:url(#SVGID_17_);}
	.st33{fill:url(#SVGID_18_);}
	.st34{fill-rule:evenodd;clip-rule:evenodd;fill:url(#path7_2_);}
</style>
<g id="Calque_1">
</g>
<g id="Calque_3">
	<g>
		<g>
			<linearGradient id="SVGID_1_" gradientUnits="userSpaceOnUse" x1="164.1193" y1="6.3466" x2="164.1193" y2="73.6519">
				<stop  offset="0" style="stop-color:#962333"/>
				<stop  offset="0.9749" style="stop-color:#3D262C"/>
			</linearGradient>
			<path class="st10" d="M167.97,73.65v-23.8h-7.81v23.8h-22.66V6.35h22.66v23.7h7.81V6.35h22.75v67.31H167.97z"/>
			<linearGradient id="SVGID_2_" gradientUnits="userSpaceOnUse" x1="223.571" y1="6.3466" x2="223.571" y2="73.6519">
				<stop  offset="0" style="stop-color:#962333"/>
				<stop  offset="0.9749" style="stop-color:#3D262C"/>
			</linearGradient>
			<path class="st11" d="M197.01,60.7V20.06l6.85-13.71h38.84l7.43,13.9v41.7l-7.04,11.71h-39.13L197.01,60.7z M219.67,53.56h7.81
				V26.24h-7.81V53.56z"/>
			<linearGradient id="SVGID_3_" gradientUnits="userSpaceOnUse" x1="280.0228" y1="6.3466" x2="280.0228" y2="73.6519">
				<stop  offset="0" style="stop-color:#962333"/>
				<stop  offset="0.9749" style="stop-color:#3D262C"/>
			</linearGradient>
			<path class="st12" d="M279.07,31.19h17.23l6.95,10.09v19.33l-6.76,13.04h-40.08V53.66h24.18V48.8h-16.09l-8.09-10.09V19.39
				l6.76-13.04h40.46v19.99h-24.56V31.19z"/>
			<linearGradient id="SVGID_4_" gradientUnits="userSpaceOnUse" x1="336.4758" y1="6.3466" x2="336.4758" y2="73.6519">
				<stop  offset="0" style="stop-color:#962333"/>
				<stop  offset="0.9749" style="stop-color:#3D262C"/>
			</linearGradient>
			<path class="st13" d="M355.61,6.35l7.43,13.9v21.71l-7.04,11.71h-23.42v19.99h-22.66V6.35H355.61z M340.38,33.57v-7.33h-7.81
				v7.33H340.38z"/>
			<linearGradient id="SVGID_5_" gradientUnits="userSpaceOnUse" x1="380.6472" y1="6.3466" x2="380.6472" y2="73.6519">
				<stop  offset="0" style="stop-color:#962333"/>
				<stop  offset="0.9749" style="stop-color:#3D262C"/>
			</linearGradient>
			<path class="st14" d="M391.98,73.65h-22.66V6.35h22.66V73.65z"/>
			<linearGradient id="SVGID_6_" gradientUnits="userSpaceOnUse" x1="424.8181" y1="6.3466" x2="424.8181" y2="73.6519">
				<stop  offset="0" style="stop-color:#962333"/>
				<stop  offset="0.9749" style="stop-color:#3D262C"/>
			</linearGradient>
			<path class="st15" d="M443.95,6.35l7.43,13.9v21.71l-7.04,11.71h-23.42v19.99h-22.66V6.35H443.95z M428.72,33.57v-7.33h-7.81
				v7.33H428.72z"/>
			<linearGradient id="SVGID_7_" gradientUnits="userSpaceOnUse" x1="484.2212" y1="6.3466" x2="484.2212" y2="73.6519">
				<stop  offset="0" style="stop-color:#962333"/>
				<stop  offset="0.9749" style="stop-color:#3D262C"/>
			</linearGradient>
			<path class="st16" d="M457.66,60.7V20.06l6.85-13.71h38.84l7.43,13.9v41.7l-7.04,11.71h-39.13L457.66,60.7z M480.32,53.56h7.81
				V26.24h-7.81V53.56z"/>
			<linearGradient id="SVGID_8_" gradientUnits="userSpaceOnUse" x1="543.6245" y1="6.3466" x2="543.6245" y2="73.6519">
				<stop  offset="0" style="stop-color:#962333"/>
				<stop  offset="0.9749" style="stop-color:#3D262C"/>
			</linearGradient>
			<path class="st17" d="M517.06,60.7V20.06l6.85-13.71h38.84l7.43,13.9v41.7l-7.04,11.71h-39.13L517.06,60.7z M539.72,53.56h7.81
				V26.24h-7.81V53.56z"/>
			<linearGradient id="SVGID_9_" gradientUnits="userSpaceOnUse" x1="600.0281" y1="6.3466" x2="600.0281" y2="73.6519">
				<stop  offset="0" style="stop-color:#962333"/>
				<stop  offset="0.9749" style="stop-color:#3D262C"/>
			</linearGradient>
			<path class="st18" d="M576.47,60.61V6.35h22.66v47.31h24.47v19.99h-40.36L576.47,60.61z"/>
		</g>
		<g>
			<g>
				<rect x="219.67" y="26.24" class="st9" width="7.81" height="27.32"/>
			</g>
			<g>
				<rect x="332.57" y="26.24" class="st9" width="7.81" height="7.33"/>
			</g>
			<path class="st9" d="M428.72,26.24v7.33h-7.81v-7.33H428.72"/>
			<path class="st9" d="M488.12,26.24v27.32h-7.81V26.24H488.12"/>
			<g>
				<rect x="539.72" y="26.24" class="st9" width="7.81" height="27.32"/>
			</g>
			<path class="st9" d="M623.59,47.31h-18.12V6.35V0h-6.35h-22.66h-6.35v6.35v0.31l-1.76-3.3L566.56,0h-3.8h-38.84H520l-1.75,3.51
				l-4.45,8.9l-4.84-9.05L507.16,0h-3.8h-38.84h-3.92l-1.75,3.51l-4.45,8.9l-4.84-9.05L447.76,0h-3.8h-45.63h-0.06h-6.28h-0.06
				h-22.59h-6.35v6.35v0.31l-1.76-3.3L359.42,0h-3.8h-45.63h-0.06h-6.28h-0.06h-40.4h-3.86l-1.78,3.43l-4.53,8.74l-4.71-8.81
				L246.51,0h-3.8h-38.84h-3.92l-1.75,3.51l-1.11,2.23V0h-6.35h-22.75h-1.46h-6.35h-22.66h-6.35v6.35v67.31V80h6.35h22.66h6.35h1.46
				h22.75h6.35v-5.76l1.29,2.41l1.8,3.35h3.8h39.13h3.59l1.85-3.07l1.54-2.56V80h6.35h40.08h3.86l1.78-3.43l1.44-2.78V80h6.35h22.66
				h6.35v-6.35V60.01h17.07h3.59l1.85-3.07l1.54-2.56v19.28V80h6.35h22.59h0.06h6.28h0.06h22.59h6.35v-6.35V60.01h17.07h3.59
				l1.85-3.07l1.54-2.56v6.34v1.6l0.75,1.41l6.95,12.95l1.8,3.35h3.8h39.13h3.59l1.85-3.07l4.96-8.25l4.28,7.98l1.8,3.35h3.8h39.13
				h3.59l1.85-3.07l4.94-8.21l4.07,7.86l1.78,3.43h3.86h40.36h6.35v-6.35V53.66v-6.35H623.59z M167.97,73.65v-23.8h-7.81v23.8
				h-22.66V6.35h22.66v23.7h7.81V6.35h22.75v12.08l-0.06,0.13v1.5V60.7v1.6l0.06,0.12v11.23H167.97z M243.09,73.65h-39.13
				l-6.89-12.83V19.93l6.79-13.58h38.84l7.36,13.78v18.59v2.23l0.06,0.08v6.29h-0.06v6.35v8.39L243.09,73.65z M303.25,60.61
				l-6.76,13.04h-40.08v-9.84l0.06-0.11v-1.76v-8.28h24.12V48.8h-16.09l-8.03-10.01V20.25v-0.98l6.69-12.92h40.4v19.99h-24.5v4.85
				h17.23l6.95,10.09V60.61z M355.99,53.66h-23.42v19.99h-22.66V32.68h0.06v-6.35V6.35h45.63l7.36,13.78v21.93L355.99,53.66z
				 M369.32,73.65V43.82l0.06-0.11v-1.76V20.25v-1.59l-0.06-0.12V6.35h22.59v67.31H369.32z M444.33,53.66h-23.42v19.99h-22.59V6.35
				h45.63l7.36,13.78v21.93L444.33,53.66z M503.74,73.65h-39.13l-6.95-12.95V43.82l0.06-0.11v-1.76V20.25v-0.32l6.79-13.58h38.84
				l7.36,13.78V60.7v1.34L503.74,73.65z M563.14,73.65h-39.13l-6.89-12.83V20.25v-0.32l6.79-13.58h38.84l7.36,13.78v40.49v1.44
				L563.14,73.65z M623.59,73.65h-40.36l-6.69-12.92V20.25v-1.59l-0.07-0.12V6.35h22.66v47.31h24.47V73.65z"/>
		</g>
		<g>
			<path class="st9" d="M132.39,90.83h18.43l2.85,5.33v15.99l-2.7,4.49h-18.58V90.83z M141.08,108.97h2.99V98.46h-2.99V108.97z"/>
			<path class="st9" d="M156.08,111.64v-15.8l2.59-5h15.44v7.67h-9.34v1.86h5.99v6.75h-5.99v1.86h9.34v7.67h-15.44L156.08,111.64z"
				/>
			<path class="st9" d="M191.05,114.23h-5.26l-0.69,2.41h-9.12l6.35-25.81h12.19l6.35,25.81h-9.12L191.05,114.23z M189.55,107.77
				l-1.13-5.44l-1.13,5.44H189.55z"/>
			<path class="st9" d="M202.73,90.83h18.43l2.85,5.33v15.99l-2.7,4.49h-18.58V90.83z M211.41,108.97h2.99V98.46h-2.99V108.97z"/>
			<path class="st9" d="M243.93,90.83l2.85,5.33v8.32l-2.7,4.49h-8.98v7.67h-8.69V90.83H243.93z M238.09,101.27v-2.81h-2.99v2.81
				H238.09z"/>
			<path class="st9" d="M249.19,111.67V96.09l2.63-5.26h14.89l2.85,5.33v15.99l-2.7,4.49h-15L249.19,111.67z M257.88,108.93h2.99
				V98.46h-2.99V108.93z"/>
			<path class="st9" d="M271.96,111.67V96.09l2.63-5.26h14.89l2.85,5.33v15.99l-2.7,4.49h-15L271.96,111.67z M280.65,108.93h2.99
				V98.46h-2.99V108.93z"/>
			<path class="st9" d="M294.74,111.64v-20.8h8.69v18.14h9.38v7.67h-15.48L294.74,111.64z"/>
			<path class="st9" d="M343.69,114.23h-5.26l-0.69,2.41h-9.12l6.35-25.81h12.19l6.35,25.81h-9.12L343.69,114.23z M342.19,107.77
				l-1.13-5.44l-1.13,5.44H342.19z"/>
			<path class="st9" d="M351.57,98.5v-7.67h19.53v7.67h-5.44v18.14h-8.69V98.5H351.57z"/>
			<path class="st9" d="M387.45,98.5v-7.67h19.53v7.67h-5.44v18.14h-8.69V98.5H387.45z"/>
			<path class="st9" d="M421.07,116.64v-9.12h-2.99v9.12h-8.69V90.83h8.69v9.09h2.99v-9.09h8.72v25.81H421.07z"/>
			<path class="st9" d="M432.2,111.64v-15.8l2.59-5h15.44v7.67h-9.34v1.86h5.99v6.75h-5.99v1.86h9.34v7.67h-15.44L432.2,111.64z"/>
			<path class="st9" d="M478.26,116.64v-9.12h-2.99v9.12h-8.69V90.83h8.69v9.09h2.99v-9.09h8.72v25.81H478.26z"/>
			<path class="st9" d="M489.39,111.67V96.09l2.63-5.26h14.89l2.85,5.33v15.99l-2.7,4.49h-15L489.39,111.67z M498.08,108.93h2.99
				V98.46h-2.99V108.93z"/>
			<path class="st9" d="M520.86,100.36h6.61l2.66,3.87v7.41l-2.59,5h-15.37v-7.67h9.27v-1.86h-6.17l-3.1-3.87v-7.41l2.59-5h15.51
				v7.67h-9.42V100.36z"/>
			<path class="st9" d="M550.2,90.83l2.85,5.33v8.32l-2.7,4.49h-8.98v7.67h-8.69V90.83H550.2z M544.36,101.27v-2.81h-2.99v2.81
				H544.36z"/>
			<path class="st9" d="M564.14,116.64h-8.69V90.83h8.69V116.64z"/>
			<path class="st9" d="M566.55,98.5v-7.67h19.53v7.67h-5.44v18.14h-8.69V98.5H566.55z"/>
			<path class="st9" d="M599.44,114.23h-5.26l-0.69,2.41h-9.12l6.35-25.81h12.19l6.35,25.81h-9.12L599.44,114.23z M597.94,107.77
				l-1.13-5.44l-1.13,5.44H597.94z"/>
			<path class="st9" d="M610.64,111.64v-20.8h8.69v18.14h9.38v7.67h-15.48L610.64,111.64z"/>
		</g>
		<g>
			<g>
				<linearGradient id="path7_1_" gradientUnits="userSpaceOnUse" x1="58.7286" y1="5.9363" x2="58.7286" y2="109.9414">
					<stop  offset="0" style="stop-color:#962333"/>
					<stop  offset="0.238" style="stop-color:#932333"/>
					<stop  offset="0.4361" style="stop-color:#882332"/>
					<stop  offset="0.62" style="stop-color:#772431"/>
					<stop  offset="0.7951" style="stop-color:#5F252F"/>
					<stop  offset="0.9626" style="stop-color:#40262C"/>
					<stop  offset="0.9749" style="stop-color:#3D262C"/>
				</linearGradient>
				<path id="path7_6_" class="st21" d="M6.74,57.94c0-28.72,23.28-52,51.99-52s51.99,23.28,51.99,52c0,28.72-23.28,52-51.99,52
					S6.74,86.66,6.74,57.94L6.74,57.94z"/>
				<path id="path9_3_" class="st22" d="M68.35,16.82l2.93,0.76c17.2,5.35,29.69,21.4,29.69,40.36c0,18.97-12.49,35.01-29.69,40.36
					l-2.93,0.75V16.82z M49.08,16.82v82.23l-2.93-0.75c-17.2-5.35-29.7-21.4-29.7-40.36c0-18.96,12.49-35.01,29.7-40.36L49.08,16.82
					z"/>
				<path id="path11_3_" class="st23" d="M44.36,69.3L22.65,55.09c2.95,6.34,3.65,13.94,11.22,18.04
					C37.04,74.16,41.59,72.16,44.36,69.3L44.36,69.3z"/>
				<path id="path13_3_" class="st23" d="M73.24,69.3l21.75-14.21c-2.95,6.34-3.66,13.94-11.24,18.04
					C80.58,74.16,76.02,72.16,73.24,69.3L73.24,69.3z"/>
			</g>
			<path id="path7_5_" class="st9" d="M58.73,5.94c28.71,0,51.99,23.28,51.99,52c0,28.72-23.28,52-51.99,52s-51.99-23.28-51.99-52
				C6.74,29.22,30.02,5.94,58.73,5.94 M58.73,0C26.79,0,0.8,25.99,0.8,57.94s25.98,57.94,57.92,57.94s57.92-25.99,57.92-57.94
				S90.67,0,58.73,0L58.73,0z"/>
		</g>
	</g>
</g>
<g id="color">
</g>
</svg>
