<?xml version="1.0" encoding="UTF-8"?>
<svg width="43px" height="37px" viewBox="0 0 43 37" version="1.1" xmlns="http://www.w3.org/2000/svg" xmlns:xlink="http://www.w3.org/1999/xlink">
    <!-- Generator: Sketch 52.4 (67378) - http://www.bohemiancoding.com/sketch -->
    <title>Path</title>
    <desc>Created with Sketch.</desc>
    <g id="Page-1" stroke="none" stroke-width="1" fill="none" fill-rule="evenodd">
        <path d="M42.3164636,4.65193295 C41.3610709,5.0755851 40.3692992,5.40981005 39.3516325,5.65177718 C40.4729845,4.58619925 41.3160952,3.25338813 41.7917472,1.76573062 C41.927513,1.34103009 41.4662239,0.973781028 41.0827248,1.20117561 C39.6669865,2.04093154 38.1420065,2.67090574 36.5500348,3.07379987 C36.4576721,3.09717885 36.362374,3.10902559 36.2667613,3.10902559 C35.9767782,3.10902559 35.6948676,3.00135651 35.4731343,2.80593765 C33.7793644,1.31314307 31.6009264,0.491 29.3392467,0.491 C28.3605798,0.491 27.3724775,0.643539934 26.4023026,0.944426264 C23.3963747,1.87675454 21.0770339,4.35628854 20.3493502,7.4154743 C20.0763509,8.56293105 20.0024398,9.71143619 20.129504,10.829014 C20.1440766,10.9574411 20.0833751,11.047078 20.0459478,11.0891182 C19.9802141,11.1628196 19.8870127,11.2050695 19.7902468,11.2050695 C19.7794485,11.2050695 19.7683356,11.2045453 19.7573275,11.2034969 C13.1774572,10.592184 7.24402071,7.42218396 3.04995881,2.2775519 C2.83608839,2.01514128 2.4259604,2.04732668 2.25549309,2.3397211 C1.43418873,3.74874977 1.00015758,5.36032631 1.00015758,7.00020923 C1.00015758,9.51339638 2.00985662,11.8818016 3.76369893,13.6083859 C3.02616048,13.4335154 2.31231553,13.1581048 1.64921238,12.7898074 C1.32840674,12.611582 0.933690008,12.840654 0.929181955,13.2075886 C0.883262717,16.9410952 3.06914425,20.2632158 6.34366816,21.7591555 C6.27772478,21.7607281 6.2117814,21.761462 6.14573318,21.761462 C5.62667805,21.761462 5.10112294,21.7113492 4.58385007,21.6124865 C4.22257679,21.5435028 3.9190695,21.8862197 4.03124663,22.2364849 C5.09409877,25.5547265 7.95115601,28.0006074 11.3701473,28.5559366 C8.53259001,30.4607462 5.22818713,31.4655179 1.78896202,31.4655179 L0.71677927,31.4648889 C0.386433337,31.4648889 0.107038887,31.680227 0.0228536179,32.0001939 C-0.0600735902,32.3153383 0.0926760208,32.647781 0.374376916,32.8116435 C4.24983479,35.0670329 8.67034772,36.259046 13.1599492,36.259046 C17.0898182,36.259046 20.7658734,35.4791528 24.0861068,33.9411729 C27.1298814,32.5312007 29.8196164,30.5156816 32.0805623,27.9505994 C34.1867666,25.5611216 35.8337785,22.8027174 36.9756789,19.7521284 C38.0642164,16.8442245 38.6395698,13.7414259 38.6395698,10.7791109 L38.6395698,10.6379983 C38.6394649,10.1623463 38.8545934,9.71479102 39.229915,9.41013051 C40.6541453,8.25376249 41.8943841,6.89254015 42.9160347,5.36431017 C43.185784,4.960787 42.7603496,4.45504636 42.3164636,4.65193295 Z" id="Path" fill="#962333"></path>
    </g>
</svg>